<svg xmlns="http://www.w3.org/2000/svg" width="640" height="460" viewBox="0 0 640 460" role="img" aria-label="Attack-budget success rate">
<rect width="640" height="460" fill="#ffffff"/>
<text x="16" y="26" font-family="Segoe UI, Helvetica, Arial, sans-serif" font-size="15" font-weight="600" fill="#111111">Attack-budget success rate</text>
<line x1="56.0" y1="46" x2="56.0" y2="404" stroke="#eeeeee" stroke-width="1"/>
<text x="56.0" y="420" font-family="Segoe UI, Helvetica, Arial, sans-serif" font-size="10" fill="#666666" text-anchor="middle">0</text>
<line x1="168.8" y1="46" x2="168.8" y2="404" stroke="#eeeeee" stroke-width="1"/>
<text x="168.8" y="420" font-family="Segoe UI, Helvetica, Arial, sans-serif" font-size="10" fill="#666666" text-anchor="middle">2</text>
<line x1="281.6" y1="46" x2="281.6" y2="404" stroke="#eeeeee" stroke-width="1"/>
<text x="281.6" y="420" font-family="Segoe UI, Helvetica, Arial, sans-serif" font-size="10" fill="#666666" text-anchor="middle">4</text>
<line x1="394.4" y1="46" x2="394.4" y2="404" stroke="#eeeeee" stroke-width="1"/>
<text x="394.4" y="420" font-family="Segoe UI, Helvetica, Arial, sans-serif" font-size="10" fill="#666666" text-anchor="middle">6</text>
<line x1="507.2" y1="46" x2="507.2" y2="404" stroke="#eeeeee" stroke-width="1"/>
<text x="507.2" y="420" font-family="Segoe UI, Helvetica, Arial, sans-serif" font-size="10" fill="#666666" text-anchor="middle">8</text>
<line x1="620.0" y1="46" x2="620.0" y2="404" stroke="#eeeeee" stroke-width="1"/>
<text x="620.0" y="420" font-family="Segoe UI, Helvetica, Arial, sans-serif" font-size="10" fill="#666666" text-anchor="middle">10</text>
<line x1="56" y1="404.0" x2="620" y2="404.0" stroke="#eeeeee" stroke-width="1"/>
<text x="48" y="407.0" font-family="Segoe UI, Helvetica, Arial, sans-serif" font-size="10" fill="#666666" text-anchor="end">0</text>
<line x1="56" y1="332.4" x2="620" y2="332.4" stroke="#eeeeee" stroke-width="1"/>
<text x="48" y="335.4" font-family="Segoe UI, Helvetica, Arial, sans-serif" font-size="10" fill="#666666" text-anchor="end">0.2</text>
<line x1="56" y1="260.8" x2="620" y2="260.8" stroke="#eeeeee" stroke-width="1"/>
<text x="48" y="263.8" font-family="Segoe UI, Helvetica, Arial, sans-serif" font-size="10" fill="#666666" text-anchor="end">0.4</text>
<line x1="56" y1="189.2" x2="620" y2="189.2" stroke="#eeeeee" stroke-width="1"/>
<text x="48" y="192.2" font-family="Segoe UI, Helvetica, Arial, sans-serif" font-size="10" fill="#666666" text-anchor="end">0.6</text>
<line x1="56" y1="117.6" x2="620" y2="117.6" stroke="#eeeeee" stroke-width="1"/>
<text x="48" y="120.6" font-family="Segoe UI, Helvetica, Arial, sans-serif" font-size="10" fill="#666666" text-anchor="end">0.8</text>
<line x1="56" y1="46.0" x2="620" y2="46.0" stroke="#eeeeee" stroke-width="1"/>
<text x="48" y="49.0" font-family="Segoe UI, Helvetica, Arial, sans-serif" font-size="10" fill="#666666" text-anchor="end">1</text>
<rect x="56" y="46" width="564" height="358" fill="none" stroke="#999999" stroke-width="1"/>
<path d="M225.2,401.2 L281.6,393.3 L338.0,387.4 L394.4,372.3 L507.2,340.1 L620.0,307.9" fill="none" stroke="#2e7d32" stroke-width="2"/>
<path d="M225.2,403.2 L281.6,399.7 L338.0,391.2 L394.4,372.0 L507.2,308.9 L620.0,218.6" fill="none" stroke="#8e6c8a" stroke-width="2" stroke-dasharray="5 3"/>
<path d="M225.2,400.7 L281.6,383.8 L338.0,350.0 L394.4,314.2 L507.2,219.1 L620.0,138.3" fill="none" stroke="#1f4e79" stroke-width="2" stroke-dasharray="5 3"/>
<path d="M225.2,400.7 L281.6,383.5 L338.0,359.0 L394.4,325.2 L507.2,236.5 L620.0,136.8" fill="none" stroke="#c55a11" stroke-width="2" stroke-dasharray="5 3"/>
<path d="M225.2,380.0 L281.6,364.9 L338.0,322.7 L394.4,271.8 L507.2,179.7 L620.0,118.6" fill="none" stroke="#7f7f7f" stroke-width="2" stroke-dasharray="5 3"/>
<text x="338.0" y="452" font-family="Segoe UI, Helvetica, Arial, sans-serif" font-size="10.5" fill="#666666" text-anchor="middle">log10 budget</text>
<text x="14" y="225.0" font-family="Segoe UI, Helvetica, Arial, sans-serif" font-size="10.5" fill="#666666" text-anchor="middle" transform="rotate(-90 14 225.0)">success rate</text>
<line x1="56" y1="38" x2="72" y2="38" stroke="#2e7d32" stroke-width="2"/>
<text x="76" y="41" font-family="Segoe UI, Helvetica, Arial, sans-serif" font-size="10" fill="#333333">M4 observed</text>
<line x1="150.2" y1="38" x2="166.2" y2="38" stroke="#8e6c8a" stroke-width="2"/>
<text x="170.2" y="41" font-family="Segoe UI, Helvetica, Arial, sans-serif" font-size="10" fill="#333333">M5 observed</text>
<line x1="244.39999999999998" y1="38" x2="260.4" y2="38" stroke="#1f4e79" stroke-width="2"/>
<text x="264.4" y="41" font-family="Segoe UI, Helvetica, Arial, sans-serif" font-size="10" fill="#333333">IndicPass (M2) predicted</text>
<line x1="419.2" y1="38" x2="435.2" y2="38" stroke="#c55a11" stroke-width="2"/>
<text x="439.2" y="41" font-family="Segoe UI, Helvetica, Arial, sans-serif" font-size="10" fill="#333333">PCFG (M3) predicted</text>
<line x1="563.0" y1="38" x2="579.0" y2="38" stroke="#7f7f7f" stroke-width="2"/>
<text x="583.0" y="41" font-family="Segoe UI, Helvetica, Arial, sans-serif" font-size="10" fill="#333333">zxcvbn 4.5.0 predicted</text>
</svg>
